<svg width="400" height="400" viewBox="0 0 200 200" xmlns="http://www.w3.org/2000/svg" role="img" aria-label="Manchester LMC logo">
  <circle cx="100" cy="100" r="95" fill="#0d3d56" />

  <path d="M100 65
           C 80 50, 40 45, 15 70
           C 30 80, 70 85, 100 75
           C 130 85, 170 80, 185 70
           C 160 45, 120 50, 100 65 Z"
        fill="#2a9fca" />

  <path d="M100 65 C 85 55, 60 55, 30 72 M100 65 C 115 55, 140 55, 170 72"
        stroke="#0d3d56" stroke-width="1" fill="none" opacity="0.3"/>

  <rect x="97.5" y="55" width="5" height="125" rx="2.5" fill="#ffffff" />
  <circle cx="100" cy="55" r="5" fill="#ffffff" />

  <path d="M100 75
           C 125 82, 125 92, 100 97
           C 80 102, 80 110, 100 115
           C 116 120, 116 128, 100 133
           C 87 138, 87 145, 100 150
           C 110 155, 110 162, 100 167"
        fill="none" stroke="#ffffff" stroke-width="4" stroke-linecap="round" />

  <path d="M100 75
           C 75 82, 75 92, 100 97
           C 120 102, 120 110, 100 115
           C 84 120, 84 128, 100 133
           C 113 138, 113 145, 100 150
           C 90 155, 90 162, 100 167"
        fill="none" stroke="#ffffff" stroke-width="4" stroke-linecap="round" />

  <g transform="translate(60, 145) rotate(-25)">
    <ellipse cx="0" cy="0" rx="6" ry="4" fill="#fcdb43" />
    <path d="M-3 -3.5 Q-4 0, -3 3.5 M0 -4 Q-1 0, 0 4 M3 -3.5 Q2 0, 3 3.5" stroke="#000000" stroke-width="1.2" fill="none"/>
    <circle cx="7" cy="0" r="2.5" fill="#000000" />
    <path d="M7 1 L10 4 M7 -1 L10 -4" stroke="#000000" stroke-width="0.8" fill="none"/>
    <path d="M-2 -3 C-6 -10, 2 -12, 6 -4 C4 -8, -1 -8, -2 -3 Z" fill="rgba(255,255,255,0.7)" stroke="#ffffff" stroke-width="0.5"/>
    <path d="M-2 3 C-6 10, 2 12, 6 4 C4 8, -1 8, -2 3 Z" fill="rgba(255,255,255,0.7)" stroke="#ffffff" stroke-width="0.5"/>
  </g>

  <g transform="translate(145, 100) rotate(15)">
    <ellipse cx="0" cy="0" rx="6" ry="4" fill="#fcdb43" />
    <path d="M-3 -3.5 Q-4 0, -3 3.5 M0 -4 Q-1 0, 0 4 M3 -3.5 Q2 0, 3 3.5" stroke="#000000" stroke-width="1.2" fill="none"/>
    <circle cx="-7" cy="0" r="2.5" fill="#000000" />
    <path d="M-7 1 L-10 4 M-7 -1 L-10 -4" stroke="#000000" stroke-width="0.8" fill="none"/>
    <path d="M2 -3 C 6 -10, -2 -12, -6 -4 C -4 -8, 1 -8, 2 -3 Z" fill="rgba(255,255,255,0.7)" stroke="#ffffff" stroke-width="0.5"/>
    <path d="M2 3 C 6 10, -2 12, -6 4 C -4 8, 1 8, 2 3 Z" fill="rgba(255,255,255,0.7)" stroke="#ffffff" stroke-width="0.5"/>
  </g>
</svg>
